<?xml version="1.0" encoding="utf-8"?>
<!-- Generator: Adobe Illustrator 27.0.1, SVG Export Plug-In . SVG Version: 6.00 Build 0)  -->
<svg version="1.1"
	 id="svg2" xmlns:dc="http://purl.org/dc/elements/1.1/" xmlns:svg="http://www.w3.org/2000/svg" xmlns:rdf="http://www.w3.org/1999/02/22-rdf-syntax-ns#" xmlns:cc="http://creativecommons.org/ns#"
	 xmlns="http://www.w3.org/2000/svg" xmlns:xlink="http://www.w3.org/1999/xlink" x="0px" y="0px" viewBox="0 0 414 153"
	 style="enable-background:new 0 0 414 153;" xml:space="preserve">
<style type="text/css">
	.st0{fill:#FFFFFF;}
	.st1{display:none;fill:none;stroke:#373535;stroke-width:0.4005;stroke-miterlimit:16.0188;}
	.st2{fill:#C8C9CB;}
	.st3{fill:#8CD7F8;}
</style>
<g id="g10" transform="matrix(1.3333333,0,0,-1.3333333,0,496.50533)">
	<path id="path12_00000116925729270025837590000014501936957174191263_" class="st0" d="M0,257.6h310.5v114.8H0V257.6z"/>
	<g id="g14">
		<g>
			<g id="g16">
				<path id="path22" class="st1" d="M310.5,372.4H0V257.6h310.5V372.4z"/>
				<g id="g24" transform="translate(75.7539,178.6484)">
					<path id="path26" class="st2" d="M-55.2,117c0-3.7,1.4-5.6,4.1-5.6c2.9,0,5.4,1.6,7.3,4.7c0.7,1.1,1.2,2.4,1.7,3.9
						c0,5.4,0.5,10,1.4,13.8c-3.9-0.8-7.3-2.6-10.2-5.6C-53.8,125.2-55.2,121.5-55.2,117 M-21.2,121.3c0.9,0,1.3-1.1,1.3-3.3
						c0-1.2-0.5-2.7-1.5-4.4c-1-1.7-2.3-3.3-3.9-4.7c-1.6-1.4-3.4-2.6-5.4-3.5c-2-0.9-3.9-1.4-5.8-1.4c-2.5,0-4.3,2.2-5.1,6.7
						c-1.3-2.1-2.9-3.8-4.9-5.1c-2-1.3-4.7-2-8.1-2c-3.4,0-6.1,1.1-8.2,3.2c-2.1,2.1-3.1,4.7-3,7.7c0,8.2,2.7,14.6,8.1,19.3
						c2.3,2,4.5,3.3,6.5,3.9c2,0.6,4.1,0.9,6.3,0.9s4-0.4,5.4-1.2c0.7,1.4,1.4,2.1,2.3,2.1c1.7,0,3.3-0.7,4.8-2.2s2.3-2.8,2.3-4.1
						c-0.7-1.6-1.7-3.5-3-5.7c-0.4-2.2-0.6-5.3-0.6-9.3c0-4,0.5-6,1.5-6c1.2,0,4.3,2.5,9.1,7.5C-22.2,120.8-21.6,121.3-21.2,121.3"
						/>
				</g>
				<g id="g28" transform="translate(130.5332,186.3286)">
					<path id="path30" class="st2" d="M-44.2,118.5c0,1.6-0.9,2.4-2.7,2.4c-1.2,0-2.6-1.2-4.2-3.6c-1.5-2.4-2.6-5-3.3-7.8v-0.1
						c0-1.6,0.3-3.3,0.8-5c0.5-1.7,0.8-2.9,0.8-3.6c0-1.6-2-3.2-6.1-4.8c-0.6-0.2-1.2-0.4-1.7-0.4c-1.2,0-2,0.6-2.5,1.9
						s-0.7,2.9-0.7,5.1c0,2.1,0.1,4.2,0.2,6.1c0.1,1.9,0.2,3.7,0.4,5.3c0.1,1.6,0.2,3,0.4,4.3c0.1,1.2,0.2,2.2,0.2,3
						c0,1.6-0.7,2.5-2.2,2.5c-1.5,0-3.2-1.7-5.2-5.2c-2-3.5-3-6.2-3-8.3c0-2,0.3-3.9,0.8-5.7c0.5-1.7,0.8-2.9,0.8-3.6
						c0-1.6-2-3.2-6.1-4.8c-0.6-0.2-1.2-0.4-1.7-0.4c-1.2,0-2,0.6-2.5,1.9c-0.5,1.2-0.7,3.2-0.7,5.8c0,6.8,0.3,11.7,0.8,14.8
						c0.7,4.5,2.4,8.7,4.9,12.7c0.9,1.3,1.8,2,2.8,2c1.6,0,3.1-1.3,4.4-3.9c0.4-0.7,0.7-1.3,0.9-1.9c2.3,2.9,5,4.3,8.1,4.3
						c2.1,0,3.9-0.7,5.6-2.1c1.6-1.4,2.5-3.1,2.5-5.2v-0.8c2.9,3.7,6.5,5.5,10.7,5.5c2.6,0,4.6-0.7,5.9-2c1.3-1.3,2-3,2-5
						c0-2-0.1-3.7-0.4-5.3c-0.3-1.6-0.6-3.1-1-4.5c-0.4-1.4-0.7-2.6-1-3.7c-0.3-1.1-0.4-1.9-0.4-2.5c0-0.6,0.2-0.9,0.6-0.9
						c0.7,0,1.6,0.5,2.7,1.4c1.1,0.9,2.1,1.9,3.2,3c1.1,1.1,2,2.1,2.9,3c0.9,0.9,1.5,1.4,1.8,1.4c0.7,0,1-0.8,1-2.5
						c0-3.4-1.7-6.6-5.1-9.8c-3.4-3.2-7-4.8-10.8-4.8c-3.5,0-5.2,3.1-5.2,9.4c0,1.6,0.3,3.8,0.8,6.6
						C-44.5,115.2-44.2,117.2-44.2,118.5"/>
				</g>
				<g id="g32" transform="translate(162.9932,180.1484)">
					<path id="path34" class="st2" d="M-37.7,117.3c0.8,1.7,1.2,3.4,1.2,5c0,1.6-0.5,2.5-1.6,2.5c-0.4,0-0.8-0.3-1.1-0.9
						s-0.4-1.2-0.4-1.8C-39.5,120.1-38.9,118.5-37.7,117.3 M-37,108.9c-3.8-4.5-8.4-6.7-13.7-6.7c-5.3,0-9.3,1.4-11.9,4.1
						c-2.6,2.7-3.9,6.1-3.9,10.1c0,5.7,1.8,10.6,5.4,14.8c3.7,4.1,8.4,6.2,14.3,6.2c2.7,0,4.9-0.3,6.5-1c2.8-1.2,4.3-2.2,4.3-3.2
						c0-0.8-2-1.2-5.9-1.2c-4,0-7.3-1.4-10-4.1c-2.7-2.7-4-6.1-4-10.3c0-2.2,0.6-4,1.9-5.4s3.1-2.2,5.4-2.2c2.3,0,4.3,0.5,5.8,1.4
						c-3.4,2.3-5.1,5.6-5.1,10c0,2.3,0.8,4.4,2.5,6.3c1.7,1.9,3.9,2.9,6.6,2.9c2.7,0,4.6-0.7,5.7-2.2c1.2-1.5,1.7-3.4,1.7-5.7
						c0-2.3-0.6-4.8-1.7-7.4h0.4c2.1,0,3.9,0.8,5.5,2.2c0.6,0.6,1.1,1.1,1.5,1.5c0.4,0.4,0.8,0.6,1.3,0.6c0.7,0,1-0.8,1-2.4
						c0-2.9-0.9-5.1-2.6-6.6c-1.7-1.5-3.6-2.2-5.7-2.2S-35.6,108.6-37,108.9"/>
				</g>
				<g id="g36" transform="translate(305.4458,173.6113)">
					<path id="path38" class="st3" d="M-9,116c0-4-3.2-7.2-7.2-7.2c-4,0-7.2,3.2-7.2,7.2c0,4,3.2,7.2,7.2,7.2
						C-12.2,123.2-9,120-9,116"/>
				</g>
				<g id="g40" transform="translate(211.4478,202.7876)">
					<path id="path42" class="st3" d="M-27.9,121.8c0.6,0,0.9-0.8,0.9-2.5s-0.1-3.2-0.3-4.6c-0.4-2.8-1-5.4-1.7-7.8
						c-1.7-6.5-2.6-10.4-2.6-11.5V84.9c0-2.6-1-4.4-3-5.3c-0.9-0.4-1.8-0.8-2.6-1.2c-0.8-0.4-1.8-0.6-2.8-0.6c-2,0-3,2.3-3,7
						c0,4.6,1.1,10.5,3.2,17.6c2.2,7.1,4.4,12.4,6.8,16.1c0.5,0.7,1.2,1.5,2.1,2.2C-30,121.5-29,121.8-27.9,121.8 M3.4,95.9
						c0.8,0,1.2-1.1,1.2-3.3c0-1.2-0.5-2.7-1.5-4.4c-1-1.7-2.3-3.3-3.9-4.7c-1.6-1.4-3.4-2.6-5.4-3.5c-2-0.9-3.8-1.4-5.6-1.4
						c-1.8,0-3.2,0.3-4.2,1c-1,0.7-1.8,1.6-2.4,2.7c-0.8,1.6-1.5,4.7-2,9.3c-0.5,4.6-1.1,7.8-1.6,9.6c-1.3,0.2-2.3,0.7-3.3,1.5
						c-0.9,0.7-1.4,1.7-1.4,2.7c0,1.1,0.5,1.9,1.5,2.3c1,0.5,2.1,0.7,3.4,0.7c1.3,0,2.4-0.3,3.4-0.9c1.3,1.1,2.4,2.4,3.3,3.9
						c0.8,1.5,1.3,3.6,1.3,6.1c0,2.6-0.9,4.6-2.6,6.2c-1.7,1.5-4.3,2.3-7.6,2.3c-3.3,0-5.9-0.3-7.7-0.8c-1.8-0.5-3.3-1.1-4.6-1.7
						c-1.3-0.6-2.4-1.2-3.4-1.7c-1-0.5-1.9-0.8-2.8-0.8c-0.9,0-1.3,0.3-1.3,0.8c0,0.6,0.5,1.5,1.4,2.7c0.9,1.2,2.3,2.5,4,3.7
						c4.5,3.1,9.5,4.7,15.1,4.6c5.6,0,10.3-1.1,13.9-3.2c4.3-2.5,6.4-6.2,6.4-11.2c0-4.1-1-7.6-3.2-10.3s-4.9-4.7-8.2-5.9
						c0.7-1.6,1.3-3.3,1.8-5.1c0.5-1.8,0.9-3.5,1.3-5c0.4-1.5,0.9-2.8,1.5-3.8c0.6-1,1.2-1.5,2-1.5c0.8,0,1.8,0.5,2.9,1.4
						c1.1,0.9,2.2,2,3.4,3.1c1.1,1.1,2.1,2.1,3,3.1C2.4,95.4,3.1,95.9,3.4,95.9"/>
				</g>
				<g id="g44" transform="translate(289.2095,181.1875)">
					<path id="path46" class="st3" d="M-12.3,117.5c0.8,0,1.2-1.1,1.2-3.3c0-1.2-0.5-2.7-1.5-4.4s-2.3-3.3-3.9-4.7
						c-1.6-1.4-3.4-2.6-5.4-3.5c-2-0.9-4.1-1.4-6.2-1.4c-2.2,0-3.9,0.7-5.1,2.1c-1.2,1.4-1.8,3-1.8,4.8c0,1.8,0.3,3.7,0.9,5.9
						c0.6,2.2,1.2,4.5,1.9,6.9c1.8,6.4,2.8,10.9,2.8,13.5c0,1.1-0.1,2-0.4,2.6c-0.3,0.6-0.8,0.9-1.7,0.9c-1.4,0-3-0.9-4.6-2.6
						c-1.6-1.7-3.2-3.9-4.6-6.6c-3.3-6.2-5.1-12.2-5.3-18c0.1-0.7,0.2-1.3,0.3-2c0.1-0.7,0.1-1.4,0.1-2.2c0-1.5-0.8-2.9-2.3-4.2
						c-1.5-1.3-3.2-1.9-5.1-1.9c-1.1,0-1.9,0.5-2.5,1.6c-0.5,1.1-0.8,2.4-0.8,4c0,1.6,0.4,3.7,1.1,6.5c0.7,2.7,1.5,5.6,2.4,8.7
						c2.3,8.1,3.5,14.2,3.5,18.2c0,2-0.3,3.6-0.8,4.8c-0.5,1.2-1.5,1.7-2.9,1.7c-2.6,0-5.2-1.9-7.7-5.6c-2.5-3.7-4.8-9.4-6.8-17.2
						c-0.5-2-0.9-3.8-1.2-5.3l-0.1-1.4c0.9-4.4,1.4-7.3,1.4-8.7c0-2.8-1-4.7-3-5.6c-0.9-0.4-1.8-0.8-2.6-1.2
						c-0.8-0.4-1.7-0.6-2.7-0.6c-2.4,0-3.6,2.3-3.6,6.9c0,4.6,1.3,13.6,3.8,26.9c0.9,4.8,1.4,7.5,1.4,8.1c0,3.9-1,5.8-3,5.8
						c-0.7,0-1.3-0.2-1.8-0.6c-0.6-0.4-1.1-0.8-1.7-1.2c-0.6-0.4-1.1-0.8-1.7-1.2c-0.6-0.4-1.2-0.6-2-0.6c-0.7,0-1.1,0.6-1.1,1.9
						c0,2.6,1.2,4.8,3.7,6.5c2.4,1.7,5.2,2.6,8.6,2.6c4.3,0,6.9-2,7.6-6.1c0.2-1.2,0.3-2.5,0.4-3.8c3.6,6.7,8,10,13.5,10
						c5.9,0,9.3-2.8,10.2-8.5c0.3-1.6,0.4-3.4,0.4-5.3v-0.6c3.1,4.3,6.8,6.5,11.1,6.5c6.1,0,9.1-3.7,9.1-11c0-3.2-0.5-6.9-1.5-11.1
						c-1-4.3-1.7-7.3-2.2-9.2c-0.5-1.8-0.7-3.3-0.7-4.3c0-1.8,0.6-2.7,1.9-2.7c1.3,0,4.3,2.5,9.1,7.5
						C-13.3,117-12.6,117.5-12.3,117.5"/>
				</g>
				<g id="g48" transform="translate(203.7544,189.1499)">
					<path id="path50" class="st3" d="M-29.5,119.1c1.2,0,1.8-1.2,1.8-3.5c0-2.3-0.5-4.8-1.6-7.5c-1-2.7-2.6-5.2-4.8-7.7
						c-2.1-2.5-4.8-4.6-8.1-6.3c-3.3-1.7-7.2-2.6-11.7-2.6c-4.5,0-8.4,1.5-11.8,4.5c-3.4,3-5.1,7.3-5.1,13c0,5.7,0.8,10.8,2.4,15.4
						c1.6,4.6,3.7,8.6,6.3,11.9c2.6,3.3,5.5,5.9,8.9,7.8c3.3,1.9,6.4,2.8,9.4,2.8c5.2,0,7.8-2.3,7.8-6.9c0-2.7-0.5-4.8-1.5-6.4
						c-1-1.6-2-2.4-3-2.4c-1.4,0-2.5,0.5-3.5,1.6c-1,1.1-2.1,1.6-3.3,1.6c-1.2,0-4.5,0.1-7.3-4.4c-2-3.1-1.7-2.8-2.4-5
						c-1.5-4.3-2.4-7.5-2.4-13.2c0.1-2.7,2.5-6.9,4.7-8.3c1.5-0.9,3.3-1.7,5.3-1.4c4.3,0.5,6.8,2.6,8.5,4.5c1.6,1.8,3.1,3.4,4.6,5.2
						c1.5,1.8,2.9,3.4,4.1,5C-31,118.3-30.1,119.1-29.5,119.1"/>
				</g>
			</g>
		</g>
	</g>
</g>
</svg>
