<?xml version="1.0" encoding="utf-8"?>
<!-- Generator: Adobe Illustrator 27.0.1, SVG Export Plug-In . SVG Version: 6.00 Build 0)  -->
<svg version="1.1"
	 id="svg2" xmlns:dc="http://purl.org/dc/elements/1.1/" xmlns:svg="http://www.w3.org/2000/svg" xmlns:rdf="http://www.w3.org/1999/02/22-rdf-syntax-ns#" xmlns:cc="http://creativecommons.org/ns#"
	 xmlns="http://www.w3.org/2000/svg" xmlns:xlink="http://www.w3.org/1999/xlink" x="0px" y="0px" viewBox="0 0 414 153"
	 style="enable-background:new 0 0 414 153;" xml:space="preserve">
<style type="text/css">
	.st0{fill:#FFFFFF;}
	.st1{clip-path:url(#SVGID_00000112621827347432108650000001272608622631156875_);}
	.st2{fill:none;stroke:#373535;stroke-width:0.4005;stroke-miterlimit:16.0188;}
	.st3{fill:#C8C9CB;}
	.st4{fill:#8CD7F8;}
</style>
<metadata><?xpacket begin="﻿" id="W5M0MpCehiHzreSzNTczkc9d"?>
<x:xmpmeta xmlns:x="adobe:ns:meta/" x:xmptk="Adobe XMP Core 7.2-c000 79.1b65a79, 2022/06/13-17:46:14        ">
   <rdf:RDF xmlns:rdf="http://www.w3.org/1999/02/22-rdf-syntax-ns#">
      <rdf:Description rdf:about=""
            xmlns:xmp="http://ns.adobe.com/xap/1.0/"
            xmlns:xmpGImg="http://ns.adobe.com/xap/1.0/g/img/"
            xmlns:xmpTPg="http://ns.adobe.com/xap/1.0/t/pg/"
            xmlns:stDim="http://ns.adobe.com/xap/1.0/sType/Dimensions#"
            xmlns:xmpG="http://ns.adobe.com/xap/1.0/g/"
            xmlns:dc="http://purl.org/dc/elements/1.1/"
            xmlns:xmpMM="http://ns.adobe.com/xap/1.0/mm/"
            xmlns:stRef="http://ns.adobe.com/xap/1.0/sType/ResourceRef#"
            xmlns:stEvt="http://ns.adobe.com/xap/1.0/sType/ResourceEvent#">
         <xmp:CreatorTool>Adobe Illustrator 27.0 (Windows)</xmp:CreatorTool>
         <xmp:CreateDate>2023-01-18T11:26:56+03:00</xmp:CreateDate>
         <xmp:MetadataDate>2023-01-18T11:26:56+03:00</xmp:MetadataDate>
         <xmp:ModifyDate>2023-01-18T11:26:56+03:00</xmp:ModifyDate>
         <xmp:Thumbnails>
            <rdf:Alt>
               <rdf:li rdf:parseType="Resource">
                  <xmpGImg:width>256</xmpGImg:width>
                  <xmpGImg:height>96</xmpGImg:height>
                  <xmpGImg:format>JPEG</xmpGImg:format>
                  <xmpGImg:image>/9j/4AAQSkZJRgABAgEASABIAAD/7QAsUGhvdG9zaG9wIDMuMAA4QklNA+0AAAAAABAASAAAAAEA&#xA;AQBIAAAAAQAB/+4ADkFkb2JlAGTAAAAAAf/bAIQABgQEBAUEBgUFBgkGBQYJCwgGBggLDAoKCwoK&#xA;DBAMDAwMDAwQDA4PEA8ODBMTFBQTExwbGxscHx8fHx8fHx8fHwEHBwcNDA0YEBAYGhURFRofHx8f&#xA;Hx8fHx8fHx8fHx8fHx8fHx8fHx8fHx8fHx8fHx8fHx8fHx8fHx8fHx8fHx8f/8AAEQgAYAEAAwER&#xA;AAIRAQMRAf/EAaIAAAAHAQEBAQEAAAAAAAAAAAQFAwIGAQAHCAkKCwEAAgIDAQEBAQEAAAAAAAAA&#xA;AQACAwQFBgcICQoLEAACAQMDAgQCBgcDBAIGAnMBAgMRBAAFIRIxQVEGE2EicYEUMpGhBxWxQiPB&#xA;UtHhMxZi8CRygvElQzRTkqKyY3PCNUQnk6OzNhdUZHTD0uIIJoMJChgZhJRFRqS0VtNVKBry4/PE&#xA;1OT0ZXWFlaW1xdXl9WZ2hpamtsbW5vY3R1dnd4eXp7fH1+f3OEhYaHiImKi4yNjo+Ck5SVlpeYmZ&#xA;qbnJ2en5KjpKWmp6ipqqusra6voRAAICAQIDBQUEBQYECAMDbQEAAhEDBCESMUEFURNhIgZxgZEy&#xA;obHwFMHR4SNCFVJicvEzJDRDghaSUyWiY7LCB3PSNeJEgxdUkwgJChgZJjZFGidkdFU38qOzwygp&#xA;0+PzhJSktMTU5PRldYWVpbXF1eX1RlZmdoaWprbG1ub2R1dnd4eXp7fH1+f3OEhYaHiImKi4yNjo&#xA;+DlJWWl5iZmpucnZ6fkqOkpaanqKmqq6ytrq+v/aAAwDAQACEQMRAD8A9M6dp2nnT7Ym2ir6SfsL&#xA;/KPbFUR+jtP/AOWWL/kWv9MVd+jtP/5ZYv8AkWv9MVd+jtP/AOWWL/kWv9MVd+jtP/5ZYv8AkWv9&#xA;MVd+jtP/AOWWL/kWv9MVd+jtP/5ZYv8AkWv9MVd+jtP/AOWWL/kWv9MVd+jtP/5ZYv8AkWv9MVd+&#xA;jtP/AOWWL/kWv9MVd+jtP/5ZYv8AkWv9MVd+jtP/AOWWL/kWv9MVd+jtP/5ZYv8AkWv9MVd+jtP/&#xA;AOWWL/kWv9MVd+jtP/5ZYv8AkWv9MVd+jtP/AOWWL/kWv9MVd+jtP/5ZYv8AkWv9MVd+jtP/AOWW&#xA;L/kWv9MVd+jtP/5ZYv8AkWv9MVd+jtP/AOWWL/kWv9MVd+jtP/5ZYv8AkWv9MVd+jtP/AOWWL/kW&#xA;v9MVd+jtP/5ZYv8AkWv9MVd+jtP/AOWWL/kWv9MVd+jtP/5ZYv8AkWv9MVd+jtP/AOWWL/kWv9MV&#xA;d+jtP/5ZYv8AkWv9MVd+jtP/AOWWL/kWv9MVd+jtP/5ZYv8AkWv9MVd+jtP/AOWWL/kWv9MVd+jt&#xA;P/5ZYv8AkWv9MVd+jtP/AOWWL/kWv9MVdp3/ABz7X/jFH/xEYqiMVdirsVdirsVdirsVdirsVdir&#xA;sVdirsVdirsVdirsVdirsVdirsVdirsVdirsVdirsVdirsVdirsVQ+nf8c+1/wCMUf8AxEYqiMVd&#xA;irsVdirsVdirsVdirsVdirsVdirsVdirsVdirsVdirsVdirsVdirsVdirsVdirsVdirsVdirsVQ+&#xA;nf8AHPtf+MUf/ERiqIxV2KuxV2KuxV2KuxV2KuxV2KuxV2KuxV2KqdxdW1tGZbiVYox+05AH45KE&#xA;DI0BbXkyxgLkQAln+LfL/qcPrX+y4Pxr8+OZP5LLV04P8r6a64vsP6k2jkSRFeNg6MKqymoIPcEZ&#xA;ikEGi7GMgRY5Ia81XTrM0ubhIm68Cfi/4Eb5ZDDOf0i2jNq8WL65AIEebvLxNPrfXxjkH/GuXfkc&#xA;vd9zijtjTfz/ALD+pMLTUbC8Fba4SWnUKwJHzHXKJ4pQ+oU5eHU48n0SBbu7+ys0D3UyQqenI0J+&#xA;Q6nBDHKf0i05tRDGLmQENa+YdGupRDBdK0hNApDLU+3ICv0ZZPS5IiyGjF2jgyS4YyF/L70dJLHF&#xA;G0kjBI1FWdiAAPcnKQCTQcuUhEWTQSv/ABX5f9T0/ri8q0rxfj/wXGmZP5LLV8Lgfytprrj+/wC+&#xA;k0iljljWSJw8bCqupqCPYjMYgg0XPjISFg2F2Bk7FXYq7FXYq7FUPp3/ABz7X/jFH/xEYqiMVdir&#xA;sVdirsVdirsVdirsVdirsVdirsVS7XNat9KtPWk+OV9oYu7N/Qd8yNPpzllQ5OFrtbHTw4jz6B5x&#xA;qGpXl/OZrqQu37I/ZUeCjtm/xYowFRDxGo1M80uKZtDZY47IrPWdVXR7fTNOjdrh+TGVQSVQuQAv&#xA;h33zAyYIeIZz5O8w63MMEcWIHiN7+V/jdVh8k3zoZ9Qu0tq7sW/eNU/zElR+ORl2hEbQFs4dh5CO&#xA;LJIR+35/2oiX8vnCVivQzgfZaPiCfmGan3ZXHtMXvH7W6fs6a2nv7v2sYngvNPvGiflDcwt1U0IP&#xA;YgjNlGUckbG4LockJ4Z0fTKKY2Gm6r5iuZZnnBaMKJJZD0rXiAo+WY+XLDAAAHN0+mza2RkZcupS&#xA;qeGW1uZIX+GWFyrEHoymmxzJjISF9C6/JCWOZiecT9yZ65r9zqrRRAkQIqgRj9qSnxMQPfpmPp9M&#xA;Mdnq5+v7QnqCIj6RW3eUHdaVqNpCk1zbvFHIaKzCm/Wh8Ppy6GaEjQNuLm0mXHESnEgFkfkbUhFH&#xA;eQTyBYI1EwLGgXejfftmv7RxWYkDfk7vsHU8InGR9I3/AFo648+aYkhWKGWVR/uzZQfkCa5THs2Z&#xA;G5AcvJ2/iBoAlN9J1qy1SFpLYkFDSSNxRlr0r1zFz6eWM0XZaPW49RG4dOiOyhy3Yq7FXYqh9O/4&#xA;59r/AMYo/wDiIxVEYqgLvXdNtnKPLykHVEHIj6emKoY+adN4MwDlgPhUrSv01ONKitM1i1vwwjqk&#xA;i7tG3WniPHFVmra1Dp5ROHqyvvwB40XxJocVXHW9PWzjunk4rIPhTq1R1FB4YqttNf066lESMyO2&#xA;yhxSp8Ad8VTB3RFLOwVR1JNB+OKrY54Za+lIr068SD+rFVzMqqWYhVG5Y7ADFUrn8y6XExUM0pH8&#xA;i7feaYq3b+ZNLmcKXaInp6goPvBIxVNKile3jirzHzDqrajqckoNYUPCAduA7/7LrnR6XD4cAOvV&#xA;4LtHVnPlJ/hGw937WSeUPL1utouoXUYkll3hVhUKvjTxOa/Xao8XBE7B3nY/Z0RDxJiyeXkE11Py&#xA;xpOoOskiGKQdXhopYf5WxBzGw6yePYb+92Gq7Lw5jZFHy2TG3t4baCOCFeEUYCoo7AZjykZGzzc7&#xA;HjjCIjHYB575n1aXUtTaGNq28LenCg6Fuhb6T+Gb3R4BjhZ5l4ztTWHPl4R9Mdh+t6Ki8UVetABX&#xA;5ZoSXtQKFPPvO7xtrjBSKpGivT+bc/qIze9ng+H8Xje3JA6jboAmf5fROI72U/YYxqPmvIn/AIkM&#xA;xu0zvEe9z/Z2BqZ6bfpYtqc/1jUrqYbiSV2HyLGn4ZssMeGAHk8/qsnHllLvkWT+SNFRlOpzqGoS&#xA;tsD2I+0/8Bmu7Q1B+gfF33YWiBHiy/zf1pp51KfoGTl1Lpx+df6Zjdn/AN6HYdt1+XPvDzwO4VlD&#xA;EK32gOhpvvm+p4sSIFJnceW9Tt9M/SMyqkXw1jJPMBjQEilO/jmNHVwlPgHNzsnZmWGLxZbDu6o7&#xA;yLI66y6CvF4W5DtsQQcp7RH7v4uX2DIjOR3x/Uz/ADRvYuxV2KuxVD6d/wAc+1/4xR/8RGKpP5k1&#xA;h4j9Tt24uRWZx1APRRhVJ9K0mfUJSFPCJP7yQ9vYeJxQi9f06zsI7eOBTzfkXdjUmlKe3fFKr5Us&#xA;2e4e7JokY4L7sf6DEqleqXRur+aYmoLEJ/qjYYoROm6HNe20lwz+lGoPpkivIj+GKpYCQajYjocV&#xA;TCddW1KOS9dS8MVSTUBVA68QTiqGsbiW3u4pYiQwYbDuCdx9OKpj5h1Z7m4a2jalvEaED9ph1J9h&#xA;2xVrR9DF1Ebq5cx2q16dWp1NewxVDXF5YiUra2aekD8LSF2Zvf7X4Yqmba/6nl+9YqIpoIgi8OlH&#xA;+BSPChOX6aHFkA83D7Qy8GCcvL79mDQxNLMkS/akYKPmTTOikaFvBwjxSAHV65DEkMKRIKJGoRR7&#xA;KKDOWlKzZfR4QEQAOQXYGSWeYtSWw0qaXlxmcGOAd+bbVHy65kaXFxzA6dXB7S1Iw4Sb9R2HvYH5&#xA;ctPrWtWsdKqr+o3yT4v4Uzd6qfDjJeQ7Nw+JniPO/lummpebNfttSniPGJY3ZRCUBFK7Gp3O3fMb&#xA;FosUoA83P1Xa+px5ZR2FHlSV6fpOqazctIilg7kzXL7KCdzv3PsMycueGIV9jgafSZtVOx1O8izx&#xA;LWDRtDlSGtIIncuerPxJr9JzSGZy5RfUvXxxR02nIj/CCfi8yjRpHVEFWchVHiTsM6MmhbwcYkmh&#xA;zL1mwtEtLKG2TpCgWviQNz9Jzl8k+KRl3vouDEMcBAdAxvz/AHPG0tbYHeRzIR7IKf8AG2bDsyHq&#xA;JdH7Q5ahGHeb+X9qVeTdHW8vjdTLWC1oQD0aQ/ZH0dcydfn4I8I5l1/Yuj8XJxy+mH3sg88XIi0X&#xA;0u88ipT2X4/+Ncwez4XkvuDuO3cnDgr+cR+v9CTeQYC2oXE/aOLj9LsD/wAanMvtKXoA83Wez+O8&#xA;kpd0fv8A7Gc5pnrHYq7FXYqh9O/459r/AMYo/wDiIxVg15MZ7qaYmpdyfoJ2woZnokCw6XbgDd1E&#xA;jHxL74EpJ5tlVruGMGpRCWHhyP8AZhCo3y2eGjTOOvN2+kKP6YqxaNC8ioOrEAfTtihnc0Udrpcs&#xA;ceyRQsF+hTgSwaCJppo4l+1IwUfMmmFDMtSSOz0OaOMURI/TH+y+H+OBLEbCNpLyILuQeZ+SDkf1&#xA;YUKBJJqdyepxVm7wV0Qwwjrb0QDv8H8cCWI6bdJaX0Vw681Qmq/MEfxwoUpiP0PfMWUFzEqrUAn4&#xA;+RoPamZmh/vQ6rtr/FpfD70ls5lgu4JmFVikVyB4KQc3k43EjveOwz4JxkehBetRSRyxrJGwaNwG&#xA;Rh0IO4OcuQQaL6LGQkARyKneXlvZ273Fw4SJBUk/qHucljgZmhzYZs0ccTKRoB5prmsz6reGZ/hi&#xA;XaGLsq/1PfOh0+AY40Obw2u1stRPiPLoE38gwq2o3Ep+1HFRf9kw/pmL2lL0AebsfZ+AOWR7opp5&#xA;9gDaZDMB8UcoUn2ZT/EDMbs2XrI8nP7fx3iEu6SC8gXlJbqzJ2YCVB7j4W/WMu7ThsJfBxfZ7NvK&#xA;Hx/X+hO/N03paBc0NDJxQfSwr+Fcw9DG8odr2xPh00vOh9rCvLEKTa9Zo/QOX+lFLj8Vzb6yVYpP&#xA;LdlwEtRAHv8AuFvTc517x535zu/X1t4wfht1WMfP7R/FqZvtBDhx33vFdt5uPOR/NFfpZd5Vs1td&#xA;DtxT4ph6znx57j/haZq9Zk4sh8tnpOycPh6ePnv8/wBjHPPt3zvoLUH4YULt/rOf6KMz+zYVEy73&#xA;Se0Ga8kYfzR9/wDYmvkS19PSpJyN55DQ/wCSgoPxrmN2jO513B2HYOLhwmX84/d+Cmqa1YyaqdNj&#xA;YvOqlnYU4gj9mvjmMdPIQ4zydjHW4zm8Ibyr4e5fe6xplk4S6uEic7hDu1PkKnI48E5/SLZZ9Zix&#xA;GpyAKIt7iC4iEsEiyxt0dTUfhkJQMTRFN2PJGYuJsKmRZofTv+Ofa/8AGKP/AIiMVYPeWslrcyQO&#xA;KFCQD4jsfpwoTK18y3VvZrbiNWZBxSQ16dqjFUvuIrySL69OCVmcj1D3NK/diq6HUruG0e0ibjHK&#xA;1WoPiNQARX3piqGVirBh1Ugj5jFWc6g7PpFw4FC0LGngCu+BLCLeUxXEUqipjdWA91NcKGY+YkZ9&#xA;Im478eLH5BhXAliFtcy20hkipzKlakVoGFDhQptHIgUspUOKqSKVHiMVTaw8y3VrAsDRiZEFEJJB&#xA;A8O+KoPhNqV8fQhCPKalErxHiTXpiqLm8oalJG6c4txseTdR0/Zy3Bl4JiTjazT+NilDvYhLFJDK&#xA;0UqlJEJV1PUEZ0kZAiw+fzgYkg7EJnpvmbVtOi9GGQNCPsxyDkF+XQ5j5dJDIbPNz9L2pmwx4Ym4&#xA;+aG1HWNR1FgbuUuq7qg2UfIDLMWCGP6Q0anW5cx9Zv7kPPbT25QTIYzIodQ2x4kkA0+jJxmJcmnJ&#xA;ilCuIVYtk/5fg/Wrs9vTX9ZzXdp/SHfez31z9wT/AM2W7T6DchRVowsg+SsCf+FrmDopVlDuO18f&#xA;Fp5V03+Tz/S9Rm069ju4QCyVqp6MpFCM3ubEMkTEvHaXUyw5BOPRE61r97qsgMv7uBPsQrXiD4nx&#xA;OV6fTRxDbm3a7tDJqDvtEdFPQJGj1uyZdyZkX6GPE/gclqReOXuYdnyIzwr+cHqWc0+gPI7udri6&#xA;mnbrK7Of9ka51MI8MQO584zZOOZl3m3qelsG0y0YCgMMZA/2Azms31n3l9A0pvFH+qPueeeaWdtf&#xA;vC/UMAPkFAH4ZvtGP3UXi+1STqZ3+NlWLzTewaPHptuoiKcgbgH4irEnYdjv1yMtHGWTjO/k2Q7V&#xA;yQwDFEV5p95M0Oa2V9QulKyyrxiRuoU7lj88wdfqBL0R5B3HYuglC8s/qPL3MS1Zp21O6M9fV9Vw&#xA;1euxpm1wAcArlTzesMjmlxc+Isl/L9p+V4u/oAIfbnv0+jNd2mB6e93vs8Zesfw7fNmOal6ZD6d/&#xA;xz7X/jFH/wARGKuvNOs7wAXEQcj7Lbgj6RiqGi8vaTG3IQciOgZmYfcTTFUZPa288JhlQNEf2enT&#xA;pSnTFVG20rTrY8oYFVv5jVj97VxVRttA0y3l9VYyzA1XmeQX5DFUwdFdGRhVWBDDxB2xVAWehada&#xA;yeokZeQbqznlT5dsVR7KrqVYBlYUYHoQcVQUWh6TG/NbdeX+UWYfcxIxVE3FpbXEfpzRrIg6Ajp8&#xA;vDFUD/hvSK19E/Lm39cVR1taW1snCCNY1PWnU/M9TiqriqW6t5e03UzznQrMBQTRmjU9+oP05kYd&#xA;VPHy5ODq+zsWfeQ9XeOaTf8AKv7Xl/vY/Hw4iv31/hmX/Kcv5rq/9D0L+s/JM9N8p6RYuJAhnlG6&#xA;vKQ1D7AADMfLrck9uQ8nP03ZODEbriPm1rnli21a4ineVonjXg3EA8lrUdfmcdPqziBFWjXdlx1E&#xA;hImiNkZpWj2WmQGK1UjkayOxqzEdKnKs2eWQ3JytJo8eCNQCNIBBBFQdiDlLlEWx+XyPoskxkBmj&#xA;BNfTVl4j2FVJ/HM8do5AK2dNPsLAZX6h5Xt9yJuPK+lyaa1jDH6CkhhKoq/JehJO5yqGsmJ8R3b8&#xA;nZeGWLw4jh8+qzSPKen6bMLjk09wv2XegC+4UZLPrZ5BXIMdH2TiwS4vql5p1mG7Rja+RdMF4Zmk&#xA;doK8hb7AfIsN6ZsD2jPhqt+90Y7BxcfESeHuZIqhVCqKKBQAdgM17uwKSrVvLWmanKJZw6TAUMkZ&#xA;AJA8ahhmTh1c8YocnA1fZmLOblYl3hbp3lXR7GQSJGZZV3V5TyI+QAC/hhy63JMVdDyY6bsnBiNg&#xA;WfP8Um+Yrsku1Dy/pN/L61zBylpQupKkj34kVzIxarJAUDs4Wo7Pw5jxTjui7OytbKAQWsYiiG/E&#xA;dz4kncnKsmSUzcjZcjDghijwwFBWyDah9O/459r/AMYo/wDiIxVEYq7FXYq7FXYq7FXYq7FXYq7F&#xA;XYq7FXYq7FXYq7FXYq7FXYq7FXYq7FXYq7FXYq7FXYq7FXYq7FXYqg7G4SOyt0dJA6RorD0pNiFA&#xA;P7OKq31uL+WT/kVJ/wA04q763F/LJ/yKk/5pxV31uL+WT/kVJ/zTirvrcX8sn/IqT/mnFXfW4v5Z&#xA;P+RUn/NOKu+txfyyf8ipP+acVd9bi/lk/wCRUn/NOKu+txfyyf8AIqT/AJpxV31uL+WT/kVJ/wA0&#xA;4q763F/LJ/yKk/5pxV31uL+WT/kVJ/zTirvrcX8sn/IqT/mnFXfW4v5ZP+RUn/NOKu+txfyyf8ip&#xA;P+acVd9bi/lk/wCRUn/NOKu+txfyyf8AIqT/AJpxV31uL+WT/kVJ/wA04q763F/LJ/yKk/5pxV31&#xA;uL+WT/kVJ/zTirvrcX8sn/IqT/mnFXfW4v5ZP+RUn/NOKu+txfyyf8ipP+acVd9bi/lk/wCRUn/N&#xA;OKu+txfyyf8AIqT/AJpxV31uL+WT/kVJ/wA04q763F/LJ/yKk/5pxV31uL+WT/kVJ/zTirvrcX8s&#xA;n/IqT/mnFXfW4v5ZP+RUn/NOKu+txfyyf8ipP+acVd9bi/lk/wCRUn/NOKv/2Q==</xmpGImg:image>
               </rdf:li>
            </rdf:Alt>
         </xmp:Thumbnails>
         <xmpTPg:MaxPageSize rdf:parseType="Resource">
            <stDim:w>413.998717</stDim:w>
            <stDim:h>153.000000</stDim:h>
            <stDim:unit>Points</stDim:unit>
         </xmpTPg:MaxPageSize>
         <xmpTPg:NPages>1</xmpTPg:NPages>
         <xmpTPg:HasVisibleTransparency>False</xmpTPg:HasVisibleTransparency>
         <xmpTPg:HasVisibleOverprint>False</xmpTPg:HasVisibleOverprint>
         <xmpTPg:PlateNames>
            <rdf:Seq>
               <rdf:li>Cyan</rdf:li>
               <rdf:li>Magenta</rdf:li>
               <rdf:li>Yellow</rdf:li>
               <rdf:li>Black</rdf:li>
            </rdf:Seq>
         </xmpTPg:PlateNames>
         <xmpTPg:SwatchGroups>
            <rdf:Seq>
               <rdf:li rdf:parseType="Resource">
                  <xmpG:groupName>Группа образцов по умолчанию</xmpG:groupName>
                  <xmpG:groupType>0</xmpG:groupType>
               </rdf:li>
            </rdf:Seq>
         </xmpTPg:SwatchGroups>
         <dc:format>image/svg+xml</dc:format>
         <xmpMM:InstanceID>xmp.iid:3dab2f18-49a0-dc4e-85bf-6872a6c0f472</xmpMM:InstanceID>
         <xmpMM:DocumentID>xmp.did:0b465454-7786-1f44-978f-1416daae1561</xmpMM:DocumentID>
         <xmpMM:OriginalDocumentID>xmp.did:462b700b-362f-0845-810f-fae2d36fcf17</xmpMM:OriginalDocumentID>
         <xmpMM:DerivedFrom rdf:parseType="Resource">
            <stRef:instanceID>xmp.iid:462b700b-362f-0845-810f-fae2d36fcf17</stRef:instanceID>
            <stRef:documentID>xmp.did:462b700b-362f-0845-810f-fae2d36fcf17</stRef:documentID>
            <stRef:originalDocumentID>xmp.did:462b700b-362f-0845-810f-fae2d36fcf17</stRef:originalDocumentID>
         </xmpMM:DerivedFrom>
         <xmpMM:History>
            <rdf:Seq>
               <rdf:li rdf:parseType="Resource">
                  <stEvt:action>saved</stEvt:action>
                  <stEvt:instanceID>xmp.iid:0b465454-7786-1f44-978f-1416daae1561</stEvt:instanceID>
                  <stEvt:when>2023-01-18T11:26:56+03:00</stEvt:when>
                  <stEvt:softwareAgent>Adobe Illustrator 27.0 (Windows)</stEvt:softwareAgent>
                  <stEvt:changed>/</stEvt:changed>
               </rdf:li>
            </rdf:Seq>
         </xmpMM:History>
      </rdf:Description>
   </rdf:RDF>
</x:xmpmeta>
                                                                                                    
                                                                                                    
                                                                                                    
                                                                                                    
                                                                                                    
                                                                                                    
                                                                                                    
                                                                                                    
                                                                                                    
                                                                                                    
                                                                                                    
                                                                                                    
                                                                                                    
                                                                                                    
                                                                                                    
                                                                                                    
                                                                                                    
                                                                                                    
                                                                                                    
                                                                                                    
                           
<?xpacket end="w"?>
	</metadata>
<g id="g10" transform="matrix(1.3333333,0,0,-1.3333333,0,496.50533)">
	<path id="path12_00000116925729270025837590000014501936957174191263_" class="st0" d="M0,257.6h310.5v114.8H0V257.6z"/>
	<g id="g14">
		<g>
			<defs>
				<rect id="SVGID_1_" x="-51.7" y="238.5" width="414" height="153"/>
			</defs>
			<clipPath id="SVGID_00000151540107568729619370000008194735755357884859_">
				<use xlink:href="#SVGID_1_"  style="overflow:visible;"/>
			</clipPath>
			<g id="g16" style="clip-path:url(#SVGID_00000151540107568729619370000008194735755357884859_);">
				<path id="path22" class="st2" d="M310.5,372.4H0V257.6h310.5V372.4z"/>
				<g id="g24" transform="translate(75.7539,178.6484)">
					<path id="path26" class="st3" d="M-55.2,117c0-3.7,1.4-5.6,4.1-5.6c2.9,0,5.4,1.6,7.3,4.7c0.7,1.1,1.2,2.4,1.7,3.9
						c0,5.4,0.5,10,1.4,13.8c-3.9-0.8-7.3-2.6-10.2-5.6C-53.8,125.2-55.2,121.5-55.2,117 M-21.2,121.3c0.9,0,1.3-1.1,1.3-3.3
						c0-1.2-0.5-2.7-1.5-4.4c-1-1.7-2.3-3.3-3.9-4.7c-1.6-1.4-3.4-2.6-5.4-3.5c-2-0.9-3.9-1.4-5.8-1.4c-2.5,0-4.3,2.2-5.1,6.7
						c-1.3-2.1-2.9-3.8-4.9-5.1c-2-1.3-4.7-2-8.1-2c-3.4,0-6.1,1.1-8.2,3.2c-2.1,2.1-3.1,4.7-3,7.7c0,8.2,2.7,14.6,8.1,19.3
						c2.3,2,4.5,3.3,6.5,3.9c2,0.6,4.1,0.9,6.3,0.9s4-0.4,5.4-1.2c0.7,1.4,1.4,2.1,2.3,2.1c1.7,0,3.3-0.7,4.8-2.2s2.3-2.8,2.3-4.1
						c-0.7-1.6-1.7-3.5-3-5.7c-0.4-2.2-0.6-5.3-0.6-9.3c0-4,0.5-6,1.5-6c1.2,0,4.3,2.5,9.1,7.5C-22.2,120.8-21.6,121.3-21.2,121.3"
						/>
				</g>
				<g id="g28" transform="translate(130.5332,186.3286)">
					<path id="path30" class="st3" d="M-44.2,118.5c0,1.6-0.9,2.4-2.7,2.4c-1.2,0-2.6-1.2-4.2-3.6c-1.5-2.4-2.6-5-3.3-7.8v-0.1
						c0-1.6,0.3-3.3,0.8-5c0.5-1.7,0.8-2.9,0.8-3.6c0-1.6-2-3.2-6.1-4.8c-0.6-0.2-1.2-0.4-1.7-0.4c-1.2,0-2,0.6-2.5,1.9
						s-0.7,2.9-0.7,5.1c0,2.1,0.1,4.2,0.2,6.1c0.1,1.9,0.2,3.7,0.4,5.3c0.1,1.6,0.2,3,0.4,4.3c0.1,1.2,0.2,2.2,0.2,3
						c0,1.6-0.7,2.5-2.2,2.5c-1.5,0-3.2-1.7-5.2-5.2c-2-3.5-3-6.2-3-8.3c0-2,0.3-3.9,0.8-5.7c0.5-1.7,0.8-2.9,0.8-3.6
						c0-1.6-2-3.2-6.1-4.8c-0.6-0.2-1.2-0.4-1.7-0.4c-1.2,0-2,0.6-2.5,1.9c-0.5,1.2-0.7,3.2-0.7,5.8c0,6.8,0.3,11.7,0.8,14.8
						c0.7,4.5,2.4,8.7,4.9,12.7c0.9,1.3,1.8,2,2.8,2c1.6,0,3.1-1.3,4.4-3.9c0.4-0.7,0.7-1.3,0.9-1.9c2.3,2.9,5,4.3,8.1,4.3
						c2.1,0,3.9-0.7,5.6-2.1c1.6-1.4,2.5-3.1,2.5-5.2v-0.8c2.9,3.7,6.5,5.5,10.7,5.5c2.6,0,4.6-0.7,5.9-2c1.3-1.3,2-3,2-5
						c0-2-0.1-3.7-0.4-5.3c-0.3-1.6-0.6-3.1-1-4.5c-0.4-1.4-0.7-2.6-1-3.7c-0.3-1.1-0.4-1.9-0.4-2.5c0-0.6,0.2-0.9,0.6-0.9
						c0.7,0,1.6,0.5,2.7,1.4c1.1,0.9,2.1,1.9,3.2,3c1.1,1.1,2,2.1,2.9,3c0.9,0.9,1.5,1.4,1.8,1.4c0.7,0,1-0.8,1-2.5
						c0-3.4-1.7-6.6-5.1-9.8c-3.4-3.2-7-4.8-10.8-4.8c-3.5,0-5.2,3.1-5.2,9.4c0,1.6,0.3,3.8,0.8,6.6
						C-44.5,115.2-44.2,117.2-44.2,118.5"/>
				</g>
				<g id="g32" transform="translate(162.9932,180.1484)">
					<path id="path34" class="st3" d="M-37.7,117.3c0.8,1.7,1.2,3.4,1.2,5c0,1.6-0.5,2.5-1.6,2.5c-0.4,0-0.8-0.3-1.1-0.9
						s-0.4-1.2-0.4-1.8C-39.5,120.1-38.9,118.5-37.7,117.3 M-37,108.9c-3.8-4.5-8.4-6.7-13.7-6.7c-5.3,0-9.3,1.4-11.9,4.1
						c-2.6,2.7-3.9,6.1-3.9,10.1c0,5.7,1.8,10.6,5.4,14.8c3.7,4.1,8.4,6.2,14.3,6.2c2.7,0,4.9-0.3,6.5-1c2.8-1.2,4.3-2.2,4.3-3.2
						c0-0.8-2-1.2-5.9-1.2c-4,0-7.3-1.4-10-4.1c-2.7-2.7-4-6.1-4-10.3c0-2.2,0.6-4,1.9-5.4s3.1-2.2,5.4-2.2c2.3,0,4.3,0.5,5.8,1.4
						c-3.4,2.3-5.1,5.6-5.1,10c0,2.3,0.8,4.4,2.5,6.3c1.7,1.9,3.9,2.9,6.6,2.9c2.7,0,4.6-0.7,5.7-2.2c1.2-1.5,1.7-3.4,1.7-5.7
						c0-2.3-0.6-4.8-1.7-7.4h0.4c2.1,0,3.9,0.8,5.5,2.2c0.6,0.6,1.1,1.1,1.5,1.5c0.4,0.4,0.8,0.6,1.3,0.6c0.7,0,1-0.8,1-2.4
						c0-2.9-0.9-5.1-2.6-6.6c-1.7-1.5-3.6-2.2-5.7-2.2S-35.6,108.6-37,108.9"/>
				</g>
				<g id="g36" transform="translate(305.4458,173.6113)">
					<path id="path38" class="st4" d="M-9,116c0-4-3.2-7.2-7.2-7.2c-4,0-7.2,3.2-7.2,7.2c0,4,3.2,7.2,7.2,7.2
						C-12.2,123.2-9,120-9,116"/>
				</g>
				<g id="g40" transform="translate(211.4478,202.7876)">
					<path id="path42" class="st4" d="M-27.9,121.8c0.6,0,0.9-0.8,0.9-2.5s-0.1-3.2-0.3-4.6c-0.4-2.8-1-5.4-1.7-7.8
						c-1.7-6.5-2.6-10.4-2.6-11.5V84.9c0-2.6-1-4.4-3-5.3c-0.9-0.4-1.8-0.8-2.6-1.2c-0.8-0.4-1.8-0.6-2.8-0.6c-2,0-3,2.3-3,7
						c0,4.6,1.1,10.5,3.2,17.6c2.2,7.1,4.4,12.4,6.8,16.1c0.5,0.7,1.2,1.5,2.1,2.2C-30,121.5-29,121.8-27.9,121.8 M3.4,95.9
						c0.8,0,1.2-1.1,1.2-3.3c0-1.2-0.5-2.7-1.5-4.4c-1-1.7-2.3-3.3-3.9-4.7c-1.6-1.4-3.4-2.6-5.4-3.5c-2-0.9-3.8-1.4-5.6-1.4
						c-1.8,0-3.2,0.3-4.2,1c-1,0.7-1.8,1.6-2.4,2.7c-0.8,1.6-1.5,4.7-2,9.3c-0.5,4.6-1.1,7.8-1.6,9.6c-1.3,0.2-2.3,0.7-3.3,1.5
						c-0.9,0.7-1.4,1.7-1.4,2.7c0,1.1,0.5,1.9,1.5,2.3c1,0.5,2.1,0.7,3.4,0.7c1.3,0,2.4-0.3,3.4-0.9c1.3,1.1,2.4,2.4,3.3,3.9
						c0.8,1.5,1.3,3.6,1.3,6.1c0,2.6-0.9,4.6-2.6,6.2c-1.7,1.5-4.3,2.3-7.6,2.3c-3.3,0-5.9-0.3-7.7-0.8c-1.8-0.5-3.3-1.1-4.6-1.7
						c-1.3-0.6-2.4-1.2-3.4-1.7c-1-0.5-1.9-0.8-2.8-0.8c-0.9,0-1.3,0.3-1.3,0.8c0,0.6,0.5,1.5,1.4,2.7c0.9,1.2,2.3,2.5,4,3.7
						c4.5,3.1,9.5,4.7,15.1,4.6c5.6,0,10.3-1.1,13.9-3.2c4.3-2.5,6.4-6.2,6.4-11.2c0-4.1-1-7.6-3.2-10.3s-4.9-4.7-8.2-5.9
						c0.7-1.6,1.3-3.3,1.8-5.1c0.5-1.8,0.9-3.5,1.3-5c0.4-1.5,0.9-2.8,1.5-3.8c0.6-1,1.2-1.5,2-1.5c0.8,0,1.8,0.5,2.9,1.4
						c1.1,0.9,2.2,2,3.4,3.1c1.1,1.1,2.1,2.1,3,3.1C2.4,95.4,3.1,95.9,3.4,95.9"/>
				</g>
				<g id="g44" transform="translate(289.2095,181.1875)">
					<path id="path46" class="st4" d="M-12.3,117.5c0.8,0,1.2-1.1,1.2-3.3c0-1.2-0.5-2.7-1.5-4.4s-2.3-3.3-3.9-4.7
						c-1.6-1.4-3.4-2.6-5.4-3.5c-2-0.9-4.1-1.4-6.2-1.4c-2.2,0-3.9,0.7-5.1,2.1c-1.2,1.4-1.8,3-1.8,4.8c0,1.8,0.3,3.7,0.9,5.9
						c0.6,2.2,1.2,4.5,1.9,6.9c1.8,6.4,2.8,10.9,2.8,13.5c0,1.1-0.1,2-0.4,2.6c-0.3,0.6-0.8,0.9-1.7,0.9c-1.4,0-3-0.9-4.6-2.6
						c-1.6-1.7-3.2-3.9-4.6-6.6c-3.3-6.2-5.1-12.2-5.3-18c0.1-0.7,0.2-1.3,0.3-2c0.1-0.7,0.1-1.4,0.1-2.2c0-1.5-0.8-2.9-2.3-4.2
						c-1.5-1.3-3.2-1.9-5.1-1.9c-1.1,0-1.9,0.5-2.5,1.6c-0.5,1.1-0.8,2.4-0.8,4c0,1.6,0.4,3.7,1.1,6.5c0.7,2.7,1.5,5.6,2.4,8.7
						c2.3,8.1,3.5,14.2,3.5,18.2c0,2-0.3,3.6-0.8,4.8c-0.5,1.2-1.5,1.7-2.9,1.7c-2.6,0-5.2-1.9-7.7-5.6c-2.5-3.7-4.8-9.4-6.8-17.2
						c-0.5-2-0.9-3.8-1.2-5.3l-0.1-1.4c0.9-4.4,1.4-7.3,1.4-8.7c0-2.8-1-4.7-3-5.6c-0.9-0.4-1.8-0.8-2.6-1.2
						c-0.8-0.4-1.7-0.6-2.7-0.6c-2.4,0-3.6,2.3-3.6,6.9c0,4.6,1.3,13.6,3.8,26.9c0.9,4.8,1.4,7.5,1.4,8.1c0,3.9-1,5.8-3,5.8
						c-0.7,0-1.3-0.2-1.8-0.6c-0.6-0.4-1.1-0.8-1.7-1.2c-0.6-0.4-1.1-0.8-1.7-1.2c-0.6-0.4-1.2-0.6-2-0.6c-0.7,0-1.1,0.6-1.1,1.9
						c0,2.6,1.2,4.8,3.7,6.5c2.4,1.7,5.2,2.6,8.6,2.6c4.3,0,6.9-2,7.6-6.1c0.2-1.2,0.3-2.5,0.4-3.8c3.6,6.7,8,10,13.5,10
						c5.9,0,9.3-2.8,10.2-8.5c0.3-1.6,0.4-3.4,0.4-5.3v-0.6c3.1,4.3,6.8,6.5,11.1,6.5c6.1,0,9.1-3.7,9.1-11c0-3.2-0.5-6.9-1.5-11.1
						c-1-4.3-1.7-7.3-2.2-9.2c-0.5-1.8-0.7-3.3-0.7-4.3c0-1.8,0.6-2.7,1.9-2.7c1.3,0,4.3,2.5,9.1,7.5
						C-13.3,117-12.6,117.5-12.3,117.5"/>
				</g>
				<g id="g48" transform="translate(203.7544,189.1499)">
					<path id="path50" class="st4" d="M-29.5,119.1c1.2,0,1.8-1.2,1.8-3.5c0-2.3-0.5-4.8-1.6-7.5c-1-2.7-2.6-5.2-4.8-7.7
						c-2.1-2.5-4.8-4.6-8.1-6.3c-3.3-1.7-7.2-2.6-11.7-2.6c-4.5,0-8.4,1.5-11.8,4.5c-3.4,3-5.1,7.3-5.1,13c0,5.7,0.8,10.8,2.4,15.4
						c1.6,4.6,3.7,8.6,6.3,11.9c2.6,3.3,5.5,5.9,8.9,7.8c3.3,1.9,6.4,2.8,9.4,2.8c5.2,0,7.8-2.3,7.8-6.9c0-2.7-0.5-4.8-1.5-6.4
						c-1-1.6-2-2.4-3-2.4c-1.4,0-2.5,0.5-3.5,1.6c-1,1.1-2.1,1.6-3.3,1.6c-1.2,0-4.5,0.1-7.3-4.4c-2-3.1-1.7-2.8-2.4-5
						c-1.5-4.3-2.4-7.5-2.4-13.2c0.1-2.7,2.5-6.9,4.7-8.3c1.5-0.9,3.3-1.7,5.3-1.4c4.3,0.5,6.8,2.6,8.5,4.5c1.6,1.8,3.1,3.4,4.6,5.2
						c1.5,1.8,2.9,3.4,4.1,5C-31,118.3-30.1,119.1-29.5,119.1"/>
				</g>
			</g>
		</g>
	</g>
</g>
</svg>
