<?xml version="1.0" standalone="no"?>
<!DOCTYPE svg PUBLIC "-//W3C//DTD SVG 20010904//EN"
 "http://www.w3.org/TR/2001/REC-SVG-20010904/DTD/svg10.dtd">
<svg version="1.0" xmlns="http://www.w3.org/2000/svg"
 width="250.000000pt" height="250.000000pt" viewBox="0 0 250.000000 250.000000"
 preserveAspectRatio="xMidYMid meet">
<metadata>
Created by potrace 1.14, written by Peter Selinger 2001-2017
</metadata>
<g transform="translate(0.000000,250.000000) scale(0.100000,-0.100000)"
fill="#000000" stroke="none">
<path d="M1070 2463 c-414 -63 -760 -309 -942 -672 -70 -139 -127 -348 -124
-458 l1 -48 75 0 c41 -1 80 1 86 2 6 2 11 25 13 50 3 65 26 169 56 254 108
310 374 563 690 658 304 91 619 44 884 -130 168 -111 317 -287 390 -462 17
-42 31 -80 31 -85 0 -6 -18 -13 -40 -17 -22 -4 -40 -10 -40 -14 0 -4 19 -27
43 -52 23 -25 78 -85 121 -133 l79 -87 53 168 c30 92 54 172 54 176 0 5 -22 6
-50 2 -41 -6 -50 -4 -50 8 0 24 -67 174 -107 241 -188 314 -498 527 -854 590
-76 13 -305 19 -369 9z"/>
<path d="M1200 2195 c-26 -32 13 -81 48 -59 34 22 22 74 -18 74 -10 0 -23 -7
-30 -15z"/>
<path d="M742 2074 c-22 -15 -23 -34 -3 -58 18 -21 27 -20 51 4 35 35 -7 83
-48 54z"/>
<path d="M1670 2070 c-22 -22 -17 -45 11 -61 14 -7 23 -5 39 11 16 16 18 25
11 39 -16 28 -39 33 -61 11z"/>
<path d="M399 1733 c-19 -22 -19 -40 -2 -55 33 -27 68 -9 61 33 -4 29 -42 43
-59 22z"/>
<path d="M2012 1733 c-28 -24 -14 -63 22 -63 34 0 50 30 30 58 -18 27 -26 27
-52 5z"/>
<path d="M623 1583 c-4 -9 -2 -18 3 -20 5 -2 122 -68 259 -148 138 -80 253
-145 258 -145 4 0 7 6 7 14 0 14 -47 43 -363 224 -131 76 -159 88 -164 75z"/>
<path d="M1804 1581 c-5 -5 -117 -64 -249 -131 -132 -68 -245 -127 -251 -132
-8 -6 -7 -18 5 -43 9 -19 20 -34 24 -35 7 0 481 303 500 320 4 4 2 12 -6 18
-8 7 -18 8 -23 3z"/>
<path d="M269 1256 c-9 -20 -9 -29 1 -41 28 -34 87 5 64 43 -18 28 -52 27 -65
-2z"/>
<path d="M2132 1268 c-25 -25 -7 -68 29 -68 29 0 44 27 31 55 -12 27 -40 33
-60 13z"/>
<path d="M41 1192 l-43 -3 6 -67 c10 -98 18 -142 27 -148 7 -4 156 30 164 38
2 2 0 22 -5 45 -6 23 -11 62 -12 87 0 25 -4 46 -7 47 -27 3 -94 3 -130 1z"/>
<path d="M2290 1183 c0 -7 -1 -15 -1 -18 -1 -2 -7 -38 -14 -79 l-11 -74 72
-21 c83 -24 104 -26 105 -8 0 6 3 32 7 57 3 25 6 69 7 99 l0 54 -82 1 c-60 1
-83 -2 -83 -11z"/>
<path d="M155 904 c-27 -7 -62 -17 -77 -20 -26 -6 -26 -6 -12 -48 28 -81 67
-166 76 -166 9 0 148 78 148 83 0 11 -71 162 -77 164 -4 1 -30 -5 -58 -13z"/>
<path d="M2229 893 c-7 -15 -23 -52 -36 -82 -12 -29 -23 -55 -23 -56 0 -9 142
-85 150 -80 11 7 45 79 70 152 l18 51 -66 16 c-37 9 -75 19 -84 22 -13 4 -21
-3 -29 -23z"/>
<path d="M396 798 c-17 -24 -11 -44 15 -59 14 -7 23 -5 40 12 18 18 19 23 7
41 -19 28 -45 31 -62 6z"/>
<path d="M1996 792 c-13 -41 12 -66 52 -51 18 7 23 15 20 36 -2 23 -8 29 -35
31 -24 2 -33 -1 -37 -16z"/>
<path d="M268 632 c-37 -21 -70 -41 -73 -44 -7 -7 53 -99 102 -156 l28 -33 62
63 62 63 -50 65 c-28 36 -54 68 -57 72 -4 4 -37 -10 -74 -30z"/>
<path d="M2063 597 l-53 -72 58 -58 c36 -36 63 -56 73 -52 13 5 120 143 127
164 3 8 -132 92 -146 90 -4 0 -31 -33 -59 -72z"/>
<path d="M738 463 c-27 -31 8 -81 42 -63 27 14 33 41 14 61 -21 24 -37 24 -56
2z"/>
<path d="M1666 461 c-25 -28 -5 -63 32 -59 30 3 42 39 22 64 -17 19 -34 18
-54 -5z"/>
<path d="M451 396 l-63 -63 64 -50 c74 -58 110 -83 119 -83 6 0 68 101 87 141
1 3 -31 30 -71 61 l-74 56 -62 -62z"/>
<path d="M1906 430 c-16 -15 -46 -38 -67 -51 -21 -13 -39 -28 -39 -32 0 -12
80 -147 87 -147 15 0 173 123 173 135 0 10 -91 104 -110 114 -10 6 -24 0 -44
-19z"/>
<path d="M1200 335 c-26 -32 13 -81 48 -59 22 14 27 41 12 59 -16 19 -44 19
-60 0z"/>
<path d="M700 231 c-22 -38 -40 -74 -40 -79 0 -10 121 -66 176 -81 l31 -9 22
80 c21 79 21 98 -2 98 -7 0 -41 14 -75 30 -35 17 -65 30 -67 30 -2 0 -22 -31
-45 -69z"/>
<path d="M1632 265 c-40 -18 -75 -35 -78 -37 -2 -3 5 -41 17 -85 21 -79 22
-81 48 -73 56 16 181 72 181 82 0 15 -80 148 -88 147 -4 -1 -40 -16 -80 -34z"/>
<path d="M981 132 c-11 -43 -21 -83 -21 -89 0 -13 104 -26 174 -21 l49 3 1 73
c1 75 -4 85 -39 88 -31 1 -116 15 -130 20 -8 4 -19 -21 -34 -74z"/>
<path d="M1383 195 c-39 -6 -78 -10 -87 -9 -18 3 -18 5 -18 -81 0 -36 1 -70 1
-76 1 -8 31 -9 99 -5 119 6 122 7 122 20 -1 13 -39 159 -42 161 -2 0 -35 -4
-75 -10z"/>
</g>
</svg>
